<?xml version="1.0" encoding="UTF-8" standalone="no"?>
<!-- Created with Inkscape (http://www.inkscape.org/) -->

<svg
   xmlns:dc="http://purl.org/dc/elements/1.1/"
   xmlns:cc="http://creativecommons.org/ns#"
   xmlns:rdf="http://www.w3.org/1999/02/22-rdf-syntax-ns#"
   xmlns:svg="http://www.w3.org/2000/svg"
   xmlns="http://www.w3.org/2000/svg"
   xmlns:sodipodi="http://sodipodi.sourceforge.net/DTD/sodipodi-0.dtd"
   xmlns:inkscape="http://www.inkscape.org/namespaces/inkscape"
   width="32mm"
   height="32mm"
   viewBox="0 0 113.38583 113.38583"
   id="svg3406"
   version="1.1"
   inkscape:version="0.91 r13725"
   sodipodi:docname="FrSky-Logo.svg">
  <defs
     id="defs3408" />
  <sodipodi:namedview
     id="base"
     pagecolor="#ffffff"
     bordercolor="#666666"
     borderopacity="1.0"
     inkscape:pageopacity="0.0"
     inkscape:pageshadow="2"
     inkscape:zoom="1.4142136"
     inkscape:cx="82.974319"
     inkscape:cy="69.423009"
     inkscape:document-units="px"
     inkscape:current-layer="layer1"
     showgrid="false"
     inkscape:window-width="503"
     inkscape:window-height="432"
     inkscape:window-x="1033"
     inkscape:window-y="522"
     inkscape:window-maximized="0" />
  <metadata
     id="metadata3411">
    <rdf:RDF>
      <cc:Work
         rdf:about="">
        <dc:format>image/svg+xml</dc:format>
        <dc:type
           rdf:resource="http://purl.org/dc/dcmitype/StillImage" />
        <dc:title></dc:title>
      </cc:Work>
    </rdf:RDF>
  </metadata>
  <g
     inkscape:label="Layer 1"
     inkscape:groupmode="layer"
     id="layer1"
     transform="translate(0,-938.97638)">
    <rect
       style="fill:#000080"
       id="rect3414"
       width="113.38583"
       height="113.38583"
       x="0"
       y="938.97638"
       ry="15.461702" />
    <path
       style="fill:#ffffff;fill-rule:evenodd;stroke:#000000;stroke-width:0.66733634px;stroke-linecap:butt;stroke-linejoin:miter;stroke-opacity:1"
       d="m 23.805227,999.56849 15.181903,-0.3336 1.501507,1.16771 4.004019,-7.34059 -3.169848,0.66728 -14.347733,-0.16675 4.170852,-7.50759 15.515572,-0.16684 2.335677,1.1679 2.00201,-6.67347 -2.335678,0 -31.197977,0 0.333669,2.33572 -15.1819033,28.52864 -2.00200957,1.8352 17.85124887,0 -0.500502,-2.5026 z"
       id="path3441"
       inkscape:connector-curvature="0" />
    <path
       style="fill:none;fill-rule:evenodd;stroke:#000000;stroke-width:0.66733634px;stroke-linecap:butt;stroke-linejoin:miter;stroke-opacity:1"
       d="m 53.168029,988.05698 0,1.66835 -11.678387,21.85517 -2.00201,1.3348 17.017078,0.3335 -0.166834,-2.1687 7.173866,-14.01412 2.83618,-1.66834 4.170853,-0.83413 4.337687,0 1.835175,1.00097 1.167839,1.00106 4.170854,-8.84225 -10.176882,0.16685 -3.336682,0.83422 -1.668341,1.5015 -1.334673,1.5015 1.668341,-3.83722 z"
       id="path3443"
       inkscape:connector-curvature="0" />
    <path
       style="fill:none;fill-rule:evenodd;stroke:#000000;stroke-width:0.66733634px;stroke-linecap:butt;stroke-linejoin:miter;stroke-opacity:1"
       d="m 66.514756,974.37654 4.671356,0 4.337687,1.00097 4.83819,2.50257 3.336682,3.50353 1.668341,3.67037 0.500502,1.83519 1.501507,0.83412 1.501507,-0.83412 0,-3.33678 -2.335677,-4.67135 -5.839194,-4.67132 -5.005025,-2.33567 -4.671355,-0.83417 -5.338691,0.66733 -0.834171,1.16783 z"
       id="path3445"
       inkscape:connector-curvature="0" />
    <path
       style="fill:none;fill-rule:evenodd;stroke:#000000;stroke-width:0.66733634px;stroke-linecap:butt;stroke-linejoin:miter;stroke-opacity:1"
       d="m 65.680586,967.87002 8.008037,-0.16683 6.506532,2.16885 6.339696,3.33667 3.837184,4.50452 2.335677,4.17081 1.167839,4.33775 1.835175,0.83422 1.501507,0 1.001006,-1.33475 0.667338,-1.16781 -0.834172,-2.33572 -2.335679,-5.67231 -3.837184,-5.33871 -6.172862,-4.17086 -6.50653,-2.33567 -7.007034,-1.50151 -5.005023,0.16683 -3.169849,0.66734 -1.001004,1.33468 0.333669,1.16784 z"
       id="path3447"
       inkscape:connector-curvature="0" />
    <path
       style="fill:none;fill-rule:evenodd;stroke:#000000;stroke-width:0.66733634px;stroke-linecap:butt;stroke-linejoin:miter;stroke-opacity:1"
       d="m 64.345913,954.69014 -2.002009,1.16783 -0.500503,2.16884 1.001005,1.33468 2.502511,0.83417 7.841203,-0.33367 5.005024,0.83416 6.673366,2.66935 4.671355,2.50252 4.671354,3.83718 4.00402,4.83819 2.335671,4.67134 1.50151,4.00406 0.16684,2.33563 1.16784,1.00106 1.83518,0.50053 2.16883,-0.16684 1.66835,-2.00203 -0.83417,-5.83925 -3.00301,-6.84017 -3.67036,-5.00503 -4.504521,-4.00402 -7.007032,-4.17085 -7.674369,-3.33669 -6.673366,-1.5015 -7.007033,-0.33367 z"
       id="path3449"
       inkscape:connector-curvature="0" />
    <path
       style="fill:#ffffff"
       d="m 41.775445,1011.9229 c 1.039921,-1.2966 11.911279,-22.04916 11.911279,-22.73784 0,-0.63318 0.907135,-0.73804 6.382472,-0.73804 l 6.38247,0 -0.739217,1.42949 c -1.145889,2.21586 -0.356692,2.57084 1.661643,0.7474 2.102403,-1.89936 3.997446,-2.3063 9.722191,-2.08731 l 3.826615,0.14631 -1.567052,3.4426 -1.567055,3.4426 -1.527646,-0.78991 c -2.250332,-1.1637 -8.555574,-0.71016 -11.261202,0.80997 -1.797578,1.00994 -2.320423,1.78132 -5.47068,8.07093 -1.915731,3.8249 -3.483148,7.3816 -3.483148,7.9039 0,0.9112 -0.299328,0.9497 -7.371889,0.9497 -5.83525,0 -7.273273,-0.1229 -6.898781,-0.5898 z"
       id="path3453"
       inkscape:connector-curvature="0" />
    <path
       style="fill:#ffffff"
       d="m 85.796516,984.84789 c -0.531206,-1.20086 -0.965836,-2.37354 -0.965836,-2.6059 0,-0.23226 -0.894691,-1.39301 -1.988202,-2.57935 -3.206151,-3.47822 -8.501027,-5.65372 -14.527535,-5.9688 -1.523582,-0.0797 -2.123451,-0.31099 -2.123451,-0.81884 0,-0.58039 0.80711,-0.70557 4.482846,-0.69529 3.86869,0.0108 4.861465,0.18817 7.246525,1.29463 3.440329,1.59603 8.078397,5.56027 9.294704,7.94441 1.110187,2.17623 1.252557,5.61262 0.232526,5.61262 -0.377158,0 -1.120364,-0.98263 -1.651577,-2.18348 z"
       id="path3455"
       inkscape:connector-curvature="0" />
    <path
       style="fill:#ffffff"
       d="m 94.906926,986.1983 c -0.297558,-0.19062 -0.797674,-1.30218 -1.111362,-2.47009 -1.346071,-5.01153 -5.438265,-10.1215 -10.15044,-12.67505 -4.901942,-2.65638 -9.260442,-3.83787 -14.223738,-3.85571 -2.932382,-0.0105 -4.447942,-0.22242 -5.095937,-0.71243 -2.855633,-2.15939 4.97525,-3.39598 11.837518,-1.86927 7.417739,1.65029 11.879823,3.9407 15.789834,8.10503 2.442311,2.60115 3.416783,4.19958 4.913549,8.05963 1.10774,2.85669 1.238369,3.61727 0.790259,4.60077 -0.527483,1.15768 -1.682559,1.50092 -2.749683,0.81712 z"
       id="path3457"
       inkscape:connector-curvature="0" />
    <path
       style="fill:#ffffff"
       d="m 103.82377,986.0729 c -0.6661,-0.26779 -1.0618,-0.8281 -1.06196,-1.50369 -1.3e-4,-0.59231 -0.43208,-2.21319 -0.9599,-3.6019 -3.863605,-10.16526 -10.597087,-16.23758 -22.633766,-20.41133 -2.574753,-0.8928 -3.95836,-1.05214 -8.617664,-0.99248 -6.4225,0.0822 -7.898072,-0.29178 -7.898072,-2.00198 0,-1.89842 1.796718,-2.70429 6.645702,-2.98077 9.883674,-0.56354 21.823824,4.09799 29.821425,11.64252 5.038255,4.75284 8.198875,10.4316 9.043825,16.24917 0.50185,3.4553 -1.19603,4.86397 -4.33959,3.60046 z"
       id="path3459"
       inkscape:connector-curvature="0" />
  </g>
</svg>
